<svg viewBox="0 0 29 34" xmlns="http://www.w3.org/2000/svg" xml:space="preserve" style="fill-rule:evenodd;clip-rule:evenodd;stroke-linejoin:round;stroke-miterlimit:2"><g transform="matrix(1 0 0 .91727 0 -16.51)"><path style="fill:none" d="M0 18h28.018v36.262H0z"/><clipPath id="a"><path d="M0 18h28.018v36.262H0z"/></clipPath><g clip-path="url(#a)"><path d="M62.001 62.026a2.934 2.934 0 0 0-.903-.721 3.017 3.017 0 0 0-1.11-.323 2.952 2.952 0 0 0-2.158.685c-.078.063-.155.127-.229.19a31.883 31.883 0 0 1-2.846 2.093l-.122.08a20.996 20.996 0 0 1-.756.472 8.121 8.121 0 0 0-.136.083l-.08.049-.143.086c-.047.028-.091.055-.138.08-.547.318-1.104.621-1.67.906l-.141.071-.196.1-.257.124-.019.011-.257.121-.196.092-.127.058c-.066.03-.135.06-.201.091-.089.038-.18.08-.271.118-.182.08-.367.158-.552.232a29.166 29.166 0 0 1-.825.326h-.006c-.179.069-.361.135-.544.199l-.036.013-.259.092c-.091.03-.182.06-.271.093l-.273.089-.077.025-.177.055-.146.047a25.11 25.11 0 0 1-.445.135l-.099.03-.182.053-.21.058-.168.047-.111.03-.141.036c-.157.041-.317.083-.477.121l-.119.031-.171.041-.141.033-.036.009-.218.049c-.132.031-.265.058-.4.086-.127.027-.254.052-.378.077l-.309.058-.191.033c-.063.011-.113.022-.171.031l-.246.041-.24.039-.03.005c-.1.014-.196.031-.293.044-.096.014-.19.028-.281.039l-.061.008-.232.031h-.017a10.11 10.11 0 0 0-.193.025l-.171.019c-.168.019-.339.038-.511.055h-.041a1.61 1.61 0 0 1-.168.022l-.147.014c-.058.005-.116.011-.174.014l-.174.014c-.229.016-.461.033-.69.046l-.306.017-.174.006c-.044 0-.088.002-.133.005l-.168.006h-.171c-.058.002-.116.008-.174.008h-.061c-.096 0-.193.003-.287.003h-.626a31.699 31.699 0 0 1-9.607-1.612c-.11-.039-.224-.075-.334-.114a6.187 6.187 0 0 1-.163-.058c-.052-.019-.11-.038-.163-.058-.088-.03-.176-.063-.265-.096l-.11-.042c-.1-.036-.199-.074-.296-.11l-.049-.019c-.039-.014-.078-.031-.113-.045l-.039-.016-.03-.011-.067-.025-.06-.025h-.014l-.028-.014-.124-.049c-.052-.022-.108-.044-.16-.067a7.429 7.429 0 0 1-.265-.11h-.014l-.177-.077-.207-.091a31.772 31.772 0 0 1-13.7-11.559 31.76 31.76 0 0 1-5.22-17.374v-.469c0-.119.005-.238.008-.357v-.027a31.603 31.603 0 0 1 2.029-10.311l.133-.345c.038-.102.08-.204.121-.306l.086-.207c.047-.113.093-.227.143-.34.053-.124.108-.248.163-.372l.011-.025c.003-.008.008-.022.014-.033l.116-.257s0-.006.003-.008c.035-.08.071-.158.107-.235.011-.022.02-.047.031-.069l.016-.039a1.97 1.97 0 0 1 .055-.113.967.967 0 0 1 .034-.072l.033-.071.03-.061c.041-.088.086-.177.13-.265l.022-.044.174-.345.124-.243.028-.05s0-.005.002-.008c0 0 0-.006.003-.006l.075-.141.027-.049.055-.102.053-.1.033-.058c.03-.06.064-.118.094-.176a31.243 31.243 0 0 1 3.453-5.022c.022-.027.047-.055.067-.083a2.96 2.96 0 0 0-4.599-3.729 37.249 37.249 0 0 0-3.032 4.144l-.022.033c-.08.127-.157.254-.237.378-.041.066-.08.132-.121.201a37.387 37.387 0 0 0-4.116 9.659l-.017.061c-.028.099-.052.201-.08.304l-.022.085a6.46 6.46 0 0 0-.041.163l-.042.163c-.027.108-.052.215-.077.326 0 .008-.006.019-.006.027-.002.017-.008.031-.011.047v.011l-.049.205c-.006.019-.009.038-.014.055a37.456 37.456 0 0 0-.409 14.484 37.377 37.377 0 0 0 5.187 13.681l.133.21.124.193c.041.066.083.13.124.193.061.094.122.185.182.279.036.056.072.108.108.16l.044.067a14.823 14.823 0 0 0 .227.331c.005.011.013.019.019.03l.022.031a22.225 22.225 0 0 0 .422.599c.078.107.158.218.238.325l.196.268c.03.042.06.083.094.124l.157.207c.033.042.063.086.099.127.05.067.102.13.152.196.028.036.055.072.083.105.055.072.113.141.168.213.036.044.069.088.105.13.05.06.1.124.152.184.036.045.072.086.108.128.049.063.105.124.157.187.036.044.075.089.113.133.05.061.102.121.155.182.083.099.168.196.254.29l.27.303c.091.1.188.21.285.312a28.43 28.43 0 0 0 .579.616 37.123 37.123 0 0 0 6.797 5.568l.058.036.198.124a37.47 37.47 0 0 0 12.141 4.939l.199.041.182.036.387.077c.063.014.129.025.193.036l.099.017.1.016.204.036.05.008.071.014c.075.014.149.025.227.039l.273.044.276.041.276.042c.091.014.185.025.276.038l.276.036.174.022.179.022.161.02c.113.014.223.025.336.036l.243.025.147.013.204.02a33.459 33.459 0 0 0 2.161.129h.091l.42.009h1.077c.143 0 .284-.006.428-.009h.03c.146-.002.29-.008.436-.013l.224-.009.223-.011c.136-.005.274-.014.409-.022.201-.011.4-.025.602-.039.218-.016.433-.035.648-.055.229-.019.459-.044.685-.069.08-.008.16-.019.243-.027.083-.009.163-.02.243-.031l.094-.011c.077-.008.154-.019.229-.03.093-.011.19-.025.284-.039l.055-.008c.108-.017.216-.03.326-.05l.039-.005.209-.033.199-.033.119-.02h.019c.152-.027.301-.052.453-.08l.027-.005.266-.05a37.316 37.316 0 0 0 12.466-4.756l.204-.125c.216-.132.431-.267.641-.403.083-.052.163-.105.243-.157a38.042 38.042 0 0 0 3.663-2.725 2.952 2.952 0 0 0 1.038-2.009 2.97 2.97 0 0 0-.682-2.156h-.011Z" style="fill:#1066df;fill-rule:nonzero" transform="matrix(.44682 0 0 .48712 0 17.726)"/><path d="M20.177 10.584c.521 0 1.035-.138 1.485-.403a31.74 31.74 0 0 1 1.788-.964c.323-.16.649-.314.978-.464l.196-.088.198-.088.136-.058.262-.113.196-.083c.132-.055.268-.111.4-.163l.152-.061.251-.099c.061-.025.122-.047.182-.069.288-.108.575-.21.867-.309l.171-.058c.34-.113.685-.224 1.03-.326l.171-.05a34.68 34.68 0 0 1 1.347-.359l.149-.035.174-.042.119-.027.127-.031c.083-.019.168-.038.251-.055.127-.028.254-.055.384-.08l.212-.042c.288-.055.575-.107.862-.157.138-.022.279-.047.417-.066.14-.022.281-.042.427-.064l.031-.005c.204-.028.408-.055.613-.08l.43-.05c.144-.016.287-.03.431-.041.143-.014.287-.025.433-.036.091-.006.183-.014.271-.019l.544-.034.27-.013c.055 0 .108-.006.163-.006l.149-.005.342-.012c.116-.002.232-.005.346-.005h.408a31.153 31.153 0 0 1 4.718.356c.058.008.118.019.179.028l.301.049.058.011.05.009c.074.014.152.025.226.038l.075.014.198.039.188.036c.066.011.133.025.196.038l.053.011c.149.031.3.064.449.097l.139.03c.104.022.207.047.311.072.122.028.243.058.365.088l.339.086.122.033.13.033h.005c.083.022.166.044.246.067.011 0 .022.005.033.008l.113.033.157.044.13.036c.061.017.122.036.182.052l.144.045.13.038.06.02h.006l.074.022.158.049.099.031.13.041.229.075c.116.038.232.08.348.118.511.18 1.016.37 1.518.575l.171.071c.125.053.249.102.373.158.425.182.834.394 1.226.64 3.638 2.283 5.181 6.951 3.436 11.02a8.884 8.884 0 0 1-11.663 4.663 13.888 13.888 0 0 0-5.303-1.121h-.005a13.763 13.763 0 0 0-2.612.223l-.093.017-.119.022c-.058.011-.119.022-.177.036h-.011a6.32 6.32 0 0 1-.187.044l-.15.036-.088.022-.143.036-.136.036-.094.025c-.19.052-.381.11-.568.171l-.227.074-.113.039c-.038.014-.074.025-.113.041l-.11.042a13.86 13.86 0 0 0-1.941.894c-.033.02-.069.039-.102.058l-.207.119c-.069.041-.135.08-.205.124l-.19.122-.166.107-.113.075a.8.8 0 0 0-.063.044c-.022.017-.053.036-.08.055a3.366 3.366 0 0 0-.094.066c-.064.045-.127.089-.188.136l-.19.14c-.031.023-.061.047-.094.069a13.548 13.548 0 0 0-1.841 1.709c-.047.053-.094.105-.141.16a7.117 7.117 0 0 0-.183.213c-.055.066-.11.132-.162.199-.02.022-.036.044-.053.066a6.821 6.821 0 0 0-.135.174c-.033.041-.063.083-.097.124a9.511 9.511 0 0 0-.256.351v.002a13.678 13.678 0 0 0-1.538 2.849c0 .006-.003.008-.006.014l-.049.124-.047.122c-.011.03-.025.063-.036.096-.011.031-.028.078-.041.119l-.05.144-.05.151a13.665 13.665 0 0 0-.417 7.076 13.632 13.632 0 0 0 1.969 4.8l.077.119a13.602 13.602 0 0 0 3.696 3.735l.141.093a13.683 13.683 0 0 0 6.095 2.228l.158.017.14.014.067.005c.875.077 1.755.072 2.63-.022a1.19 1.19 0 0 0 .102-.014h.009a13.819 13.819 0 0 0 5.189-1.662 2.953 2.953 0 0 0 1.494-2.928 2.948 2.948 0 0 0-2.137-2.501 2.958 2.958 0 0 0-2.249.265 7.916 7.916 0 0 1-4.738.944l-.085-.011-.149-.02c-.05-.008-.105-.013-.16-.025a6.162 6.162 0 0 1-.5-.102c-.03-.005-.058-.014-.085-.019l-.1-.025-.099-.025-.1-.027-.082-.025-.108-.033c-.064-.02-.127-.042-.191-.061l-.093-.033c-.064-.022-.127-.047-.188-.069a10.136 10.136 0 0 1-.279-.113l-.072-.031-.074-.033-.075-.036-.116-.055a7.955 7.955 0 0 1-2.987-2.534l-.066-.099-.063-.094c-.022-.033-.039-.058-.056-.086a7.973 7.973 0 0 1-1.269-4.157v-.26c0-.038 0-.082.002-.127.003-.041.003-.082.006-.127 0-.03 0-.06.005-.091l.006-.091a5.19 5.19 0 0 1 .03-.317c.006-.058.014-.116.022-.177.006-.044.011-.088.02-.132l.016-.1c.011-.061.02-.121.033-.182a6.73 6.73 0 0 1 .034-.174l.041-.19c.011-.042.019-.083.03-.127l.025-.1.058-.207c.088-.287.191-.571.309-.847a7.71 7.71 0 0 1 .726-1.323c.022-.035.05-.069.072-.102l.116-.16.061-.083c.022-.03.044-.058.066-.085.028-.036.055-.072.086-.108.027-.036.058-.072.085-.105l.089-.102c.049-.061.104-.119.16-.177l.011-.011a5.578 5.578 0 0 1 .334-.336l.038-.036c.301-.285.627-.544.969-.779l.196-.13c.033-.022.067-.044.105-.066a2.41 2.41 0 0 1 .116-.071c.039-.023.077-.047.119-.07a8.256 8.256 0 0 1 1.297-.593l.193-.066.13-.042.13-.038.132-.036.127-.033a7.146 7.146 0 0 1 .403-.089l.092-.016.093-.017c.061-.011.119-.019.18-.027h.005a7.68 7.68 0 0 1 1.132-.083h.13a7.96 7.96 0 0 1 2.981.64c6.14 2.634 13.314.815 17.449-4.425a14.843 14.843 0 0 0 3.189-9.099v-.027a14.796 14.796 0 0 0-9.259-13.778 8.55 8.55 0 0 1-.293-.121 21.07 21.07 0 0 0-.438-.177c-.147-.058-.293-.116-.439-.171l-.241-.091a5.8 5.8 0 0 0-.24-.088c-.072-.025-.141-.053-.212-.078l-.191-.069-.295-.102a37.024 37.024 0 0 0-.616-.204l-.141-.047-.168-.055-.254-.08-.171-.053-.152-.044-.215-.064-.434-.124c-.099-.027-.198-.055-.298-.08l-.281-.074h-.011l-.061-.017c-.163-.041-.323-.083-.486-.121l-.166-.039-.193-.047-.29-.066-.022-.006-.29-.063a43.253 43.253 0 0 0-.604-.127L44.615.66l-.257-.05-.171-.033-.245-.044-.089-.017-.579-.096a21.934 21.934 0 0 0-.61-.092l-.243-.033-.138-.016c-.017 0-.034-.006-.05-.006l-.166-.022-.16-.019-.11-.014-.213-.025-.066-.008c-.086-.008-.171-.019-.26-.028l-.24-.022-.083-.008-.237-.022c-.094-.008-.188-.017-.281-.022a41.79 41.79 0 0 0-1.279-.078h-.096l-.055-.002-.207-.009-.293-.008a71.441 71.441 0 0 0-.649-.011h-.635c-.091 0-.179 0-.27.003-.091.003-.174.003-.26.005-.085 0-.171.003-.259.006-.125.003-.251.008-.376.014l-.218.008-.099.006-.163.008-.213.011-.193.011h-.027a37.172 37.172 0 0 0-5.066.671l-.061.011c-.135.027-.27.058-.408.085l-.022.006c-.061.014-.122.025-.182.038A37.269 37.269 0 0 0 19.094 4.8l-.289.166-.116.066-.1.061a2.948 2.948 0 0 0-1.184 1.455 2.99 2.99 0 0 0-.075 1.874c.18.616.555 1.157 1.066 1.543a2.95 2.95 0 0 0 1.781.591h.002l-.002.028Z" style="fill:#1066df;fill-rule:nonzero" transform="matrix(.44682 0 0 .48712 0 17.726)"/><path d="m15.647 24.063-.025.042a25.531 25.531 0 0 0-3.009 7.166c-.003.014-.009.028-.011.041l-.042.174c-.005.028-.014.058-.019.086-.014.055-.025.11-.039.166a25.609 25.609 0 0 0-.386 9.468l.033.215c.006.028.008.056.011.083l.017.094.024.152.006.027s0 .014.003.023a25.634 25.634 0 0 0 3.848 9.788l.05.078c.187.284.38.563.579.839.075.105.152.207.227.309a25.632 25.632 0 0 0 16.833 10.073l.036.006.168.024h.025l.138.022h.031l.149.023c2.023.256 4.071.267 6.1.038l.13-.016a1.81 1.81 0 0 1 .124-.014l.174-.022.033-.006h.022l.039-.008.163-.022.058-.008.287-.042h.003a25.612 25.612 0 0 0 11.693-4.999 2.93 2.93 0 0 0 .77-.867 2.983 2.983 0 0 0 .307-2.258 2.95 2.95 0 0 0-1.389-1.805 2.925 2.925 0 0 0-1.101-.37 2.928 2.928 0 0 0-1.159.083 2.994 2.994 0 0 0-1.038.521 19.74 19.74 0 0 1-7.045 3.443c-.033.008-.066.013-.1.022-.646.165-1.3.295-1.96.394h-.027c-.077.017-.155.025-.232.036l-.086.011c-.847.111-1.7.166-2.553.166h-.006c-1.822 0-3.635-.251-5.391-.748l-.017-.006c-.135-.038-.273-.08-.408-.121a16.099 16.099 0 0 1-.906-.304l-.132-.049-.039-.014a7.297 7.297 0 0 1-.231-.089l-.067-.024-.116-.047-.03-.011h-.006c-.077-.031-.154-.061-.231-.094l-.058-.025-.064-.028c-.116-.049-.229-.099-.345-.149l-.094-.041a19.844 19.844 0 0 1-8.218-6.94l-.049-.072-.086-.13-.075-.116a19.845 19.845 0 0 1-3.174-10.572v-.254c0-.102 0-.204.003-.307v-.024a19.06 19.06 0 0 1 .074-1.331 19.814 19.814 0 0 1 2.761-8.439l.033-.055.06-.102a19.72 19.72 0 0 1 1.141-1.645 19.722 19.722 0 0 1 6.001-5.201 19.93 19.93 0 0 1 6.843-2.327 19.974 19.974 0 0 1 2.819-.199h.005c.072 0 .144-.003.218-.008h.014a19.56 19.56 0 0 1 7.542 1.606h.005a2.95 2.95 0 0 0 2.267.031 2.956 2.956 0 0 0 1.65-3.848 2.968 2.968 0 0 0-1.581-1.624h-.006a25.502 25.502 0 0 0-13.819-1.813l-.102.016-.163.025-.03.006-.122.019a25.445 25.445 0 0 0-9.888 3.832l-.022.013c-.044.031-.091.058-.135.089l-.138.091c-.031.022-.061.041-.091.063a25.41 25.41 0 0 0-6.855 6.86c-.038.055-.074.111-.11.166l-.116.174-.022.033-.119.185-.069.107c-.025.039-.05.078-.072.116a1.003 1.003 0 0 1-.041.064l-.05.077-.005.014.003-.006Z" style="fill:#1066df;fill-rule:nonzero" transform="matrix(.44682 0 0 .48712 0 17.726)"/></g></g></svg>