<svg width="250" height="250" fill="none" xmlns="http://www.w3.org/2000/svg"><g opacity=".1" clip-path="url(#a)"><path d="M208.337 124.771c23.011 0 41.666-18.655 41.666-41.667s-18.655-41.666-41.666-41.666c-23.012 0-41.667 18.654-41.667 41.666 0 23.012 18.655 41.667 41.667 41.667ZM41.437 83.333c23.012 0 41.667-18.654 41.667-41.666C83.104 18.655 64.449 0 41.437 0S-.229 18.655-.229 41.667c0 23.011 18.654 41.666 41.666 41.666Z" fill="#1066DF"/><path d="M206.836 208.327c0 22.183-17.983 40.166-40.167 40.166-22.183 0-40.167-17.983-40.167-40.166 0-22.184 17.984-40.167 40.167-40.167 22.184 0 40.167 17.983 40.167 40.167Z" stroke="#1066DF" stroke-width="3"/><path d="M83.34 41.435C83.34 18.551 101.995 0 125.007 0s41.666 18.555 41.666 41.435H83.34Z" fill="#1066DF"/><path d="M166.528 39.935C167.321 18.582 184.981 1.5 206.667 1.5c21.686 0 39.345 17.085 40.139 38.435h-80.278ZM1.528 124.935C2.32 103.582 19.98 86.5 41.668 86.5c21.685 0 39.344 17.085 40.137 38.435H1.528ZM41.528 164.935c.793-21.353 18.453-38.435 40.14-38.435 21.685 0 39.344 17.085 40.138 38.435H41.528Z" stroke="#1066DF" stroke-width="3"/><path d="M124.773 83.336H83.337c0-23.14 18.551-41.898 41.436-41.898v41.898ZM41.437 166.432H.002c0-23.012 18.55-41.666 41.435-41.666v41.666Z" fill="#1066DF"/><path d="M166.669 83.336h-41.898c0-23.14 18.757-41.898 41.898-41.898v41.898ZM166.669 166.432h-41.898c0-23.012 18.757-41.666 41.898-41.666v41.666Z" fill="#1066DF"/><path d="M1.271 206.836v-38.871c20.987.775 37.873 17.747 38.64 38.871H1.27Z" stroke="#1066DF" stroke-width="3"/><path d="M208.337 166.432H166.67c0-23.012 18.654-41.666 41.667-41.666v41.666Z" fill="#1066DF"/><path d="M1.271 248.507v-38.64c20.99.771 37.868 17.648 38.64 38.64H1.27Z" stroke="#1066DF" stroke-width="3"/><path d="m125.004 83.34 20.833 20.718 20.834 20.717H83.337l20.834-20.717 20.833-20.718Z" fill="#1066DF"/><path d="m247.887 208.558-19.782 19.891 1.015 1.01-1.015-1.01-18.269 18.372v-76.525l18.269 18.371 19.782 19.891Z" stroke="#1066DF" stroke-width="3"/><path d="m208.335 166.663 20.834-20.949 20.833-20.948V208.562l-20.833-20.949-20.834-20.95ZM41.669 0C18.657 0 .002 18.655.002 41.667c0 23.013 18.655 41.666 41.667 41.666 23.011 0 41.666-18.654 41.666-41.666C83.335 18.655 64.675 0 41.67 0Zm-16.01 17.025c.18-.479.51-.885.942-1.159l.04-.024.04-.025.092-.052.23-.132a29.664 29.664 0 0 1 8.197-3.14l.145-.03.018-.004.325-.07.049-.008c1.33-.27 2.679-.449 4.035-.534h.021l.154-.01.167-.008.13-.006h.08l.174-.007c.099-.004.2-.01.298-.01.07 0 .139-.005.208-.005.068 0 .133 0 .206-.005.073-.005.142 0 .215 0h.504a16 16 0 0 1 .516.008l.233.007.168.007h.122c.34.015.679.034 1.017.061.075.004.15.01.225.018l.188.017.067.007.19.018.208.021.052.007.168.02.084.01.127.016.066.009.067.009c.012 0 .026.004.04.004l.109.013.193.026c.163.022.324.046.486.073.163.027.308.05.462.078l.07.012.196.035.136.027.205.04.14.026c.16.033.321.066.482.101l.23.05.018.005.23.052.155.038.132.031c.13.03.257.064.387.097l.048.013h.01l.223.059c.084.02.159.042.238.064l.345.098.168.052.121.035.136.042.203.063.134.044.112.038c.168.052.328.107.49.163l.236.083.151.055.168.062c.064.022.127.046.191.07l.191.073c.117.043.234.09.35.136a24.667 24.667 0 0 1 .583.238c.077.03.152.063.228.096A11.776 11.776 0 0 1 60.57 25.1v.022a11.815 11.815 0 0 1-2.539 7.247 11.802 11.802 0 0 1-13.897 3.522 6.352 6.352 0 0 0-2.375-.51h-.103c-.302 0-.603.022-.901.066h-.005a4.21 4.21 0 0 0-.143.022l-.075.013-.073.013-.096.02-.224.05-.101.027c-.036.01-.07.02-.106.028l-.103.031-.103.033-.155.053a6.53 6.53 0 0 0-1.033.473l-.095.054-.092.058-.084.052-.156.104a6.323 6.323 0 0 0-.772.62l-.03.029c-.042.037-.084.074-.12.114-.05.05-.099.101-.147.154l-.009.008-.127.141-.07.084c-.022.027-.047.055-.068.084-.022.029-.047.057-.07.084-.022.027-.034.044-.051.068l-.049.066c-.03.042-.062.084-.092.128-.018.026-.04.052-.057.084a1.23 1.23 0 0 0-.084.127c-.022.04-.05.079-.075.119a6.232 6.232 0 0 0-.665 1.482l-.047.168c-.005.028-.012.053-.019.08-.007.026-.015.067-.024.1l-.033.152-.027.138-.026.145c0 .027-.009.053-.013.08l-.015.105c-.007.048-.014.095-.018.14a1.265 1.265 0 0 0-.01.078c-.006.057-.01.116-.014.176v.072a.357.357 0 0 0-.005.073V41.784a6.347 6.347 0 0 0 1.01 3.312l.045.068.05.075.053.079a6.342 6.342 0 0 0 2.38 2.019l.091.043.06.03.059.026.058.024c.072.03.146.061.221.09l.15.055.075.026.152.049.084.026.066.02.078.022.08.02.079.019c.022.005.044.012.068.016.079.02.16.037.242.053l.156.028c.051.01.083.014.128.02l.118.015.068.009a6.297 6.297 0 0 0 3.774-.755 2.348 2.348 0 0 1 2.612.208 2.338 2.338 0 0 1 .882 1.574 2.348 2.348 0 0 1-.492 1.737 2.364 2.364 0 0 1-.699.596 11.03 11.03 0 0 1-4.134 1.324h-.007c-.026 0-.055.008-.083.01a10.73 10.73 0 0 1-2.097.018l-.053-.004-.112-.01-.125-.014a10.903 10.903 0 0 1-4.855-1.775l-.113-.075a10.837 10.837 0 0 1-2.943-2.974l-.062-.095a10.843 10.843 0 0 1-1.568-3.823 10.88 10.88 0 0 1 .332-5.635l.04-.121c.012-.037.026-.078.04-.114.013-.037.023-.07.033-.095l.028-.077.038-.097a3 3 0 0 1 .04-.099v-.01a10.911 10.911 0 0 1 1.428-2.55c.026-.033.05-.066.078-.098l.107-.14.042-.052c.042-.052.084-.105.13-.158.012-.016.026-.031.04-.046.034-.042.07-.084.105-.123.035-.04.075-.084.111-.128l.014-.013c.442-.493.929-.944 1.453-1.348.027-.018.05-.037.075-.055l.152-.112c.048-.038.099-.073.149-.108l.075-.053c.022-.015.047-.03.064-.044a.5.5 0 0 1 .05-.035l.09-.06.133-.083.15-.097.163-.099.168-.094.084-.047c.414-.23.842-.435 1.282-.611.084-.035.176-.068.264-.102l.088-.032c.03-.014.06-.022.09-.033l.09-.031.18-.06c.15-.047.302-.094.453-.135l.075-.02.108-.029.114-.029.07-.017.119-.029c.051-.01.099-.021.15-.035h.008c.047-.01.095-.02.141-.028.031-.007.064-.011.095-.018l.075-.013.251-.044a10.92 10.92 0 0 1 1.823-.134c1.453.017 2.888.32 4.224.892a7.074 7.074 0 0 0 5.576-13c-.099-.045-.198-.084-.297-.126l-.136-.057c-.4-.163-.803-.315-1.21-.457l-.276-.095-.17-.075-.103-.033-.079-.024-.126-.04-.058-.017h-.005l-.048-.015-.104-.032-.114-.035-.145-.042-.103-.028-.126-.036-.09-.025a.11.11 0 0 0-.026-.007l-.196-.053-.103-.027-.098-.026-.27-.068a12.227 12.227 0 0 0-.29-.07c-.096-.022-.168-.04-.251-.057l-.11-.025a18.22 18.22 0 0 0-.36-.077l-.041-.008a2.204 2.204 0 0 0-.156-.031l-.15-.029-.078-.016-.08-.015-.06-.01-.18-.032-.04-.006-.045-.009-.24-.04c-.048-.006-.097-.015-.143-.022a24.763 24.763 0 0 0-3.756-.283h-.601l-.136.005-.136.004h-.12c-.043 0-.083.004-.129.004-.07.005-.143.007-.215.012l-.434.026-.215.015c-.117.01-.23.018-.345.03-.114.011-.229.019-.343.032l-.343.04c-.163.02-.325.041-.488.063l-.024.004c-.117.018-.23.034-.34.052l-.336.052c-.23.04-.458.084-.686.125l-.168.033a14.918 14.918 0 0 0-.506.108l-.101.025-.094.021-.139.033-.119.029c-.36.084-.717.182-1.072.286l-.137.039c-.275.084-.55.168-.82.26l-.136.046c-.233.079-.462.16-.691.246-.048.018-.097.035-.145.055l-.2.08-.12.048c-.106.042-.214.084-.32.129l-.156.066-.209.09-.107.047-.159.07-.156.07a25.69 25.69 0 0 0-2.204 1.137c-.358.21-.767.322-1.182.321v-.022a2.348 2.348 0 0 1-2.267-1.7 2.375 2.375 0 0 1 .06-1.482l.003.003Zm-1.403 13.956v-.01l.04-.06a.587.587 0 0 0 .033-.051c.018-.031.037-.062.057-.092l.055-.084.095-.147.017-.027c.031-.046.064-.094.092-.138a20.231 20.231 0 0 1 5.548-5.596l.072-.05.11-.073c.035-.024.073-.046.108-.07l.018-.011a20.295 20.295 0 0 1 7.875-3.052l.097-.015.025-.005.129-.02.084-.012a20.313 20.313 0 0 1 11.006 1.444 2.365 2.365 0 0 1 1.236 3.098 2.355 2.355 0 0 1-3.098 1.233 15.6 15.6 0 0 0-6.007-1.28h-.012c-.06.006-.116.007-.173.007h-.005c-.751 0-1.501.053-2.245.159a15.889 15.889 0 0 0-6.34 2.39 15.812 15.812 0 0 0-4.8 4.916c-.015.026-.032.055-.047.084-.01.013-.018.029-.027.044A15.65 15.65 0 0 0 26 40.28a.297.297 0 0 0 0 .046c-.005.031-.007.064-.01.097-.024.304-.04.61-.046.917v.466c.03 2.99.907 5.91 2.529 8.422l.06.092.067.103.04.057a15.808 15.808 0 0 0 6.542 5.528l.075.032.275.12.05.021.046.02.186.075.024.008.092.038.053.02c.061.024.123.048.185.07l.03.012.105.039.245.084c.158.054.316.107.477.156.108.033.218.066.325.096l.014.005c1.397.396 2.842.596 4.293.596h.005c.68 0 1.36-.044 2.034-.132l.068-.01c.062-.008.123-.014.185-.028h.022a15.382 15.382 0 0 0 1.56-.314l.084-.018a15.712 15.712 0 0 0 5.61-2.741c.247-.192.528-.335.828-.42a2.352 2.352 0 0 1 1.8.23 2.37 2.37 0 0 1 1.106 1.438 2.38 2.38 0 0 1-.244 1.797 2.35 2.35 0 0 1-.614.69 20.402 20.402 0 0 1-9.31 3.982c-.074.011-.149.023-.227.033l-.047.007-.13.017-.03.007h-.018l-.026.004-.139.019a.995.995 0 0 0-.099.01l-.103.013a20.427 20.427 0 0 1-4.859-.03l-.12-.018h-.023l-.11-.017h-.02l-.134-.02-.028-.005a20.412 20.412 0 0 1-13.395-8.006l-.013-.017c-.06-.083-.12-.167-.18-.246-.159-.22-.312-.444-.462-.671l-.04-.062a20.406 20.406 0 0 1-3.064-7.8v-.017l-.005-.022-.02-.12-.012-.076c-.004-.021-.005-.044-.01-.066l-.026-.168a20.382 20.382 0 0 1 .308-7.542c.011-.043.02-.084.03-.132l.016-.067.033-.139c0-.01.007-.022.009-.033a20.298 20.298 0 0 1 2.397-5.707l.011-.022ZM61.73 62.93a2.351 2.351 0 0 1-.827 1.6 30.095 30.095 0 0 1-2.918 2.17l-.194.126c-.168.107-.335.215-.509.32l-.163.1a29.723 29.723 0 0 1-9.93 3.788l-.21.04-.023.004-.36.064h-.015l-.095.015-.159.026-.167.027-.03.005c-.084.015-.175.026-.26.039l-.044.007-.227.03c-.06.009-.12.018-.182.024l-.075.01c-.064.009-.127.017-.194.024l-.193.022c-.18.02-.363.039-.546.055-.182.016-.343.03-.516.043l-.48.032-.325.017-.178.008-.178.007c-.117.004-.23.009-.347.011h-.024c-.115 0-.227.007-.341.007h-.858l-.335-.007h-.073c-.182-.004-.368-.013-.55-.022-.11 0-.22-.01-.33-.017a27.028 27.028 0 0 1-.838-.064l-.163-.015-.116-.012-.194-.02c-.09-.008-.178-.017-.268-.028-.042-.004-.084-.01-.128-.016l-.142-.016-.14-.019-.22-.028c-.072-.011-.146-.02-.22-.03l-.219-.034-.22-.033-.218-.035-.18-.031-.057-.01-.04-.008-.162-.028-.079-.013-.08-.013c-.05-.01-.103-.018-.153-.029-.104-.02-.205-.042-.308-.061l-.145-.03-.159-.032a29.827 29.827 0 0 1-9.67-3.933l-.158-.1-.046-.028a29.527 29.527 0 0 1-5.413-4.435l-.233-.244c-.077-.081-.152-.163-.229-.246a12.499 12.499 0 0 1-.226-.252 11.97 11.97 0 0 0-.216-.242 6.854 6.854 0 0 1-.202-.23c-.042-.049-.084-.097-.123-.146a3.218 3.218 0 0 1-.09-.105l-.126-.15c-.028-.033-.057-.066-.084-.1a3.183 3.183 0 0 1-.12-.148c-.029-.033-.056-.068-.084-.103-.044-.058-.09-.113-.134-.168a1.804 1.804 0 0 1-.066-.084c-.04-.054-.084-.104-.121-.157-.029-.033-.052-.068-.08-.1-.041-.056-.083-.11-.124-.168a1.887 1.887 0 0 1-.075-.1l-.157-.212a9.853 9.853 0 0 1-.188-.26c-.062-.087-.126-.174-.187-.261a7.584 7.584 0 0 1-.15-.216c-.006-.009-.01-.016-.017-.024a.151.151 0 0 1-.016-.024 8.3 8.3 0 0 1-.18-.264l-.035-.053a1.843 1.843 0 0 1-.084-.128c-.048-.075-.096-.147-.145-.221l-.099-.154-.099-.155a29.756 29.756 0 0 1-4.252-11.154 29.857 29.857 0 0 1 .34-11.446c.006-.014.007-.029.012-.045l.04-.163v-.008c0-.013.007-.024.008-.038.002-.013.005-.015.005-.022l.061-.259.033-.13.034-.13c.006-.023.01-.046.017-.068.022-.084.041-.162.064-.241l.013-.049c.24-.899.522-1.786.848-2.663a29.79 29.79 0 0 1 2.433-5.032c.032-.054.063-.107.096-.16.064-.099.126-.2.19-.3l.017-.028a29.883 29.883 0 0 1 2.414-3.3 2.36 2.36 0 0 1 4.145 1.256 2.358 2.358 0 0 1-.482 1.715c-.015.021-.035.043-.053.065a24.917 24.917 0 0 0-2.75 4l-.075.14-.018.032-.008.015-.042.079-.044.083c-.006.014-.016.027-.022.04l-.06.112v.011l-.02.04c-.034.064-.066.13-.1.193l-.138.275c-.007.011-.011.025-.018.036-.035.07-.07.14-.103.21l-.018.036-.006.013-.026.057c-.01.017-.018.037-.027.058a.991.991 0 0 0-.044.09l-.013.03c-.01.018-.015.037-.024.055-.03.062-.058.123-.084.187a.01.01 0 0 0 0 .007l-.093.204c0 .009-.008.02-.01.026a15.285 15.285 0 0 0-.138.317c-.043.1-.078.18-.115.27l-.069.168-.096.244-.106.275a25.167 25.167 0 0 0-1.616 8.212v.022c0 .094-.007.189-.007.284v.373a25.298 25.298 0 0 0 4.215 13.926 25.31 25.31 0 0 0 10.834 9.117l.168.073.14.062h.012c.07.03.14.058.21.084l.128.052.099.04.022.01h.01l.05.02.052.02.024.01.031.012c.029.01.059.024.09.035l.04.016c.077.029.156.059.235.084l.084.034.21.076.13.047.13.045c.084.031.178.06.266.09 2.47.82 5.05 1.254 7.652 1.285h.78c.047 0 .093-.005.139-.006h.131l.135-.005h.105l.139-.004.244-.014c.182-.01.367-.024.55-.037l.138-.011c.046 0 .093-.007.139-.011l.116-.011c.045-.004.09-.01.134-.018h.033c.137-.012.273-.028.407-.043l.136-.017.154-.019h.013l.185-.024.049-.007.224-.03.233-.036.024-.004.191-.031.196-.033c.046-.007.083-.015.136-.024l.152-.026.246-.046c.099-.02.2-.04.302-.063.101-.022.213-.043.319-.067l.173-.04.029-.007.112-.025.136-.033c.03-.01.064-.016.095-.025.127-.03.251-.063.38-.097l.112-.028.084-.025.134-.037.168-.046.145-.042.08-.024.353-.107.117-.038.14-.044c.023-.006.042-.013.062-.02l.217-.07c.07-.026.144-.05.216-.075l.207-.072.029-.012c.145-.05.29-.103.432-.158h.004c.146-.055.29-.112.434-.168.075-.028.15-.06.224-.09.147-.06.295-.121.44-.185l.216-.095.16-.072.101-.047.156-.072.205-.097.015-.009.205-.099.156-.079.112-.057c.45-.226.894-.468 1.33-.72l.11-.065.114-.068.064-.039c.035-.023.07-.044.108-.066.038-.022.072-.045.112-.069.167-.099.328-.202.49-.308l.097-.064a25.206 25.206 0 0 0 2.135-1.558c.044-.035.088-.07.132-.108l.182-.152a2.341 2.341 0 0 1 1.72-.545 2.394 2.394 0 0 1 1.602.831h.01c.402.478.599 1.096.547 1.719l.005.003ZM41.438 166.438h83.333v83.565H41.438z" fill="#1066DF"/></g><defs><clipPath id="a"><path d="M0 0h250v250H0z"/></clipPath></defs></svg>